<mxfile host="app.diagrams.net" modified="2024-04-04T11:58:11.855Z" agent="Mozilla/5.0 (Macintosh; Intel Mac OS X 10_15_7) AppleWebKit/537.36 (KHTML, like Gecko) Chrome/122.0.0.0 Safari/537.36" etag="5eFWWNnbnB6oZ5Lf98uV" version="24.2.2" type="github">
  <diagram name="第 1 页" id="G6rXq8SEp3VB2jL0fzHg">
    <mxGraphModel dx="1152" dy="683" grid="1" gridSize="10" guides="1" tooltips="1" connect="1" arrows="1" fold="1" page="1" pageScale="1" pageWidth="827" pageHeight="1169" math="0" shadow="0">
      <root>
        <mxCell id="0" />
        <mxCell id="1" parent="0" />
      </root>
    </mxGraphModel>
  </diagram>
</mxfile>
